<svg width="41" height="41" viewBox="0 0 41 41" fill="none" xmlns="http://www.w3.org/2000/svg">
<rect width="41" height="41" rx="20.5" fill="white"/>
<path d="M18.492 14.3247C18.6856 14.1299 18.9243 13.986 19.1869 13.9058C19.4495 13.8255 19.7278 13.8114 19.9972 13.8647C20.2666 13.9179 20.5186 14.0369 20.731 14.211C20.9433 14.3852 21.1093 14.6091 21.2142 14.8628C21.3191 15.1166 21.3597 15.3923 21.3324 15.6655C21.3051 15.9388 21.2106 16.201 21.0575 16.429C20.9044 16.6569 20.6974 16.8435 20.4548 16.9721C20.2122 17.1008 19.9416 17.1675 19.667 17.1663H12.167M20.992 26.6747C21.1856 26.8694 21.4243 27.0133 21.6869 27.0935C21.9495 27.1738 22.2278 27.1879 22.4972 27.1347C22.7666 27.0814 23.0186 26.9624 23.231 26.7883C23.4433 26.6141 23.6093 26.3903 23.7142 26.1365C23.8191 25.8827 23.8597 25.607 23.8324 25.3338C23.8051 25.0605 23.7106 24.7983 23.5575 24.5704C23.4044 24.3424 23.1974 24.1558 22.9548 24.0272C22.7122 23.8985 22.4416 23.8318 22.167 23.833H12.167M25.2753 16.9413C25.5177 16.6996 25.8159 16.5213 26.1436 16.4222C26.4713 16.3231 26.8183 16.3063 27.1541 16.3732C27.4898 16.4402 27.8038 16.5888 28.0684 16.8061C28.333 17.0233 28.54 17.3023 28.6711 17.6186C28.8022 17.9348 28.8534 18.2785 28.82 18.6192C28.7867 18.9599 28.6699 19.2872 28.48 19.572C28.2901 19.8568 28.0329 20.0905 27.7313 20.2523C27.4296 20.4141 27.0927 20.499 26.7503 20.4997H12.167" stroke="#1E1E1E" stroke-width="2" stroke-linecap="round" stroke-linejoin="round"/>
</svg>
