<svg width="41" height="41" viewBox="0 0 41 41" fill="none" xmlns="http://www.w3.org/2000/svg">
<rect width="41" height="41" rx="20.5" fill="white"/>
<g clip-path="url(#clip0_2939_116083)">
<path d="M26.9036 26.8312H25.4848C23.788 26.8312 22.248 26.139 21.1308 25.0233C20.0152 23.9077 19.3221 22.3663 19.3221 20.6693V17.9342C19.3221 17.5271 19.1534 17.1553 18.8839 16.8849C18.6135 16.6146 18.2409 16.4459 17.8346 16.4459C17.4276 16.4459 17.0557 16.6146 16.7854 16.8849C16.5151 17.1553 16.3464 17.5279 16.3464 17.9342V20.66H16.8503C17.1034 20.66 17.3096 20.8655 17.3096 21.1194V23.5882C17.3096 23.8413 17.1042 24.0476 16.8503 24.0476H15.7706C15.5174 24.0476 15.3112 23.8421 15.3112 23.5882C15.3112 23.3351 15.5167 23.1288 15.7706 23.1288H16.3909V21.5773H11.6277V23.1288H12.248C12.5012 23.1288 12.7074 23.3343 12.7074 23.5882C12.7074 23.8413 12.5019 24.0476 12.248 24.0476H11.1684C10.9152 24.0476 10.709 23.8421 10.709 23.5882V21.1194C10.709 20.8662 10.9145 20.66 11.1684 20.66H11.6723V17.9342C11.6723 16.2373 12.3644 14.6973 13.4809 13.5802C14.5966 12.4645 16.1379 11.7715 17.8349 11.7715C19.5319 11.7715 21.0718 12.4637 22.1889 13.5802C23.3046 14.6958 23.9976 16.2372 23.9976 17.9342V20.6693C23.9976 21.0764 24.1663 21.4482 24.4359 21.7185C24.7062 21.9889 25.0788 22.1568 25.4851 22.1568H26.9038V21.6529C26.9038 21.3998 27.1093 21.1936 27.3632 21.1936H29.832C30.0852 21.1936 30.2914 21.399 30.2914 21.6529V27.3341C30.2914 27.5872 30.0859 27.7935 29.832 27.7935H27.3632C27.1101 27.7935 26.9038 27.588 26.9038 27.3341V26.8294L26.9036 26.8312ZM14.0097 24.3788C13.9105 24.5109 13.8097 24.6437 13.7082 24.7765C13.1363 25.5249 12.5558 26.2851 12.5558 26.8568C12.5558 27.2584 12.7183 27.6217 12.9816 27.8849C13.2441 28.1482 13.6082 28.3107 14.0097 28.3107C14.4113 28.3107 14.7746 28.1482 15.0379 27.8849C15.3004 27.6224 15.4636 27.2584 15.4636 26.8568C15.4636 26.2849 14.8832 25.5256 14.3113 24.7771C14.2097 24.6443 14.1082 24.5115 14.0097 24.3795V24.3788ZM12.9808 24.221C13.209 23.9226 13.4347 23.6265 13.6238 23.3421C13.6574 23.289 13.7019 23.2429 13.7566 23.2062C13.9675 23.0663 14.2519 23.1249 14.3917 23.3351C14.5816 23.621 14.8097 23.9202 15.0394 24.221C15.7058 25.0937 16.3816 25.978 16.3816 26.8562C16.3816 27.5109 16.1167 28.1038 15.687 28.5327C15.2581 28.9616 14.6644 29.2272 14.0097 29.2272C13.355 29.2272 12.7621 28.9616 12.3332 28.5327C11.9044 28.1038 11.6387 27.5108 11.6387 26.8562C11.6387 25.978 12.3145 25.0928 12.9809 24.2202L12.9808 24.221ZM26.9042 23.0765H25.4854C24.8245 23.0765 24.2229 22.8046 23.7869 22.3687C23.3509 21.9327 23.0791 21.3304 23.0791 20.6702V17.935C23.0791 16.4912 22.49 15.1803 21.54 14.2303C20.59 13.2803 19.2782 12.6913 17.8354 12.6913C16.3916 12.6913 15.0807 13.2803 14.1307 14.2303C13.1807 15.1803 12.5916 16.4922 12.5916 17.935V20.6608H15.4293V17.935C15.4293 17.2741 15.7012 16.6725 16.1371 16.2365C16.5731 15.8005 17.1754 15.5287 17.8356 15.5287C18.4958 15.5287 19.0981 15.8005 19.5341 16.2365C19.9701 16.6724 20.2419 17.2748 20.2419 17.935V20.6702C20.2419 22.1139 20.831 23.4242 21.781 24.3748C22.731 25.3248 24.0428 25.9139 25.4857 25.9139H26.9044L26.9042 23.0765ZM29.373 26.8773V22.1141H27.8222V26.8773H29.373Z" fill="black" stroke="black" stroke-width="0.5"/>
</g>
<defs>
<clipPath id="clip0_2939_116083">
<rect width="20" height="20" fill="white" transform="translate(10.5 10.5)"/>
</clipPath>
</defs>
</svg>
