<?xml version="1.0" encoding="UTF-8" standalone="no"?>
<!DOCTYPE svg PUBLIC "-//W3C//DTD SVG 1.1//EN" "http://www.w3.org/Graphics/SVG/1.1/DTD/svg11.dtd">
<svg width="100%" height="100%" viewBox="0 0 41 41" version="1.1" xmlns="http://www.w3.org/2000/svg" xmlns:xlink="http://www.w3.org/1999/xlink" xml:space="preserve" xmlns:serif="http://www.serif.com/" style="fill-rule:evenodd;clip-rule:evenodd;stroke-linecap:round;stroke-linejoin:round;">
    <path d="M41,20.5C41,9.186 31.814,0 20.5,0C9.186,0 0,9.186 0,20.5C0,31.814 9.186,41 20.5,41C31.814,41 41,31.814 41,20.5Z"/>
    <path d="M7.416,9.761L20.5,9.761C20.5,9.761 18.899,12.476 19.609,12.742C20.767,13.175 20.594,15.022 19.615,15.091C19.389,15.107 19.14,14.983 19.14,14.983L20.5,18.291L23.416,19.238C23.416,19.238 24.832,19.424 25.938,19.009C27.044,18.593 27.215,17.769 28.263,17.751C29.311,17.732 32.844,17.823 33.444,18.77C34.043,19.717 34.179,31.241 34.179,31.241L6.64,31.834L7.416,9.761Z" style="fill:none;"/>
    <clipPath id="_clip1">
        <path d="M7.416,9.761L20.5,9.761C20.5,9.761 18.899,12.476 19.609,12.742C20.767,13.175 20.594,15.022 19.615,15.091C19.389,15.107 19.14,14.983 19.14,14.983L20.5,18.291L23.416,19.238C23.416,19.238 24.832,19.424 25.938,19.009C27.044,18.593 27.215,17.769 28.263,17.751C29.311,17.732 32.844,17.823 33.444,18.77C34.043,19.717 34.179,31.241 34.179,31.241L6.64,31.834L7.416,9.761Z"/>
    </clipPath>
    <g clip-path="url(#_clip1)">
        <path d="M10.5,14.5C11.1,15 11.7,15.5 13,15.5C15.5,15.5 15.5,13.5 18,13.5C19.3,13.5 19.9,14 20.5,14.5C21.1,15 21.7,15.5 23,15.5C25.5,15.5 25.5,13.5 28,13.5C29.3,13.5 29.9,14 30.5,14.5M10.5,26.5C11.1,27 11.7,27.5 13,27.5C15.5,27.5 15.5,25.5 18,25.5C19.3,25.5 19.9,26 20.5,26.5C21.1,27 21.7,27.5 23,27.5C25.5,27.5 25.5,25.5 28,25.5C29.3,25.5 29.9,26 30.5,26.5M10.5,20.5C11.1,21 11.7,21.5 13,21.5C15.5,21.5 15.5,19.5 18,19.5C19.3,19.5 19.9,20 20.5,20.5C21.1,21 21.7,21.5 23,21.5C25.5,21.5 25.5,19.5 28,19.5C29.3,19.5 29.9,20 30.5,20.5" style="fill:none;fill-rule:nonzero;stroke:white;stroke-width:2px;"/>
    </g>
    <g transform="matrix(1,0,0,1,-3.32012,-2.7969)">
        <circle cx="23.82" cy="23.594" r="17.18" style="fill:none;"/>
        <clipPath id="_clip2">
            <circle cx="23.82" cy="23.594" r="17.18"/>
        </clipPath>
        <g clip-path="url(#_clip2)">
            <g transform="matrix(0.0152786,0.0152786,-0.0152786,0.0152786,35.3365,16.2969)">
                <g transform="matrix(1,0,0,1,-600,-600)">
                    <path d="M1138.46,276.191L924.89,62.62L315.86,671.65L300.86,656.65L300.864,656.65C292.071,647.857 280.149,642.916 267.712,642.916C255.278,642.916 243.357,647.857 234.564,656.65L145.943,745.271C137.15,754.064 132.213,765.986 132.213,778.419C132.213,790.849 137.15,802.771 145.943,811.564L389.513,1055.14C398.306,1063.93 410.232,1068.87 422.665,1068.87C435.099,1068.87 447.02,1063.93 455.813,1055.14L544.434,966.511C553.223,957.722 558.161,945.8 558.161,933.37C558.161,920.94 553.223,909.018 544.434,900.229L529.434,885.221L1138.46,276.191ZM369.418,724.158L476.918,831.668L1084.9,223.688L977.408,116.188L369.428,724.168L369.418,724.158ZM422.668,982.228L218.858,778.438L267.702,729.594L471.512,933.384L422.668,982.228Z" style="fill:white;stroke:white;stroke-width:1px;stroke-linecap:butt;stroke-miterlimit:2;"/>
                </g>
            </g>
        </g>
    </g>
</svg>
