<?xml version="1.0" encoding="UTF-8" standalone="no"?>
<!DOCTYPE svg PUBLIC "-//W3C//DTD SVG 1.1//EN" "http://www.w3.org/Graphics/SVG/1.1/DTD/svg11.dtd">
<svg width="100%" height="100%" viewBox="0 0 41 41" version="1.1" xmlns="http://www.w3.org/2000/svg" xmlns:xlink="http://www.w3.org/1999/xlink" xml:space="preserve" xmlns:serif="http://www.serif.com/" style="fill-rule:evenodd;clip-rule:evenodd;stroke-linecap:round;stroke-linejoin:round;">
    <path d="M41,20.5C41,9.186 31.814,0 20.5,0C9.186,0 0,9.186 0,20.5C0,31.814 9.186,41 20.5,41C31.814,41 41,31.814 41,20.5Z"/>
    <path d="M20.5,12.741L25.217,17.458C26.15,18.39 26.785,19.578 27.043,20.871C27.3,22.165 27.169,23.505 26.664,24.724C26.16,25.942 25.305,26.984 24.209,27.716C23.112,28.449 21.823,28.84 20.505,28.84C19.186,28.84 17.897,28.449 16.8,27.716C15.704,26.984 14.849,25.942 14.345,24.724C13.841,23.505 13.709,22.165 13.966,20.871C14.224,19.578 14.859,18.39 15.792,17.458L20.5,12.741Z" style="fill:none;fill-rule:nonzero;stroke:white;stroke-width:2px;"/>
</svg>
