<svg width="41" height="41" viewBox="0 0 41 41" fill="none" xmlns="http://www.w3.org/2000/svg">
    <rect width="41" height="41" rx="20.5" fill="black"/>
    <path fill-rule="evenodd" clip-rule="evenodd" d="M21.6975 12.6858C21.5099 12.8734 21.4044 13.128 21.4044 13.3935C21.4044 13.659 21.5099 13.9136 21.6975 14.1013L22.0179 14.4216L14.4216 22.0178L14.1013 21.6975H14.1014C13.9136 21.5097 13.659 21.4042 13.3934 21.4042C13.1279 21.4042 12.8734 21.5097 12.6856 21.6975L10.7932 23.5899C10.6054 23.7777 10.5 24.0322 10.5 24.2977C10.5 24.5632 10.6054 24.8177 10.7932 25.0055L15.9944 30.2069C16.1821 30.3946 16.4368 30.5 16.7023 30.5C16.9678 30.5 17.2224 30.3946 17.4102 30.2069L19.3026 28.3142C19.4902 28.1265 19.5957 27.872 19.5957 27.6065C19.5957 27.3411 19.4903 27.0865 19.3026 26.8988L18.9823 26.5784L26.5785 18.9822L26.8988 19.3025C27.0865 19.4902 27.3411 19.5956 27.6066 19.5956C27.8721 19.5956 28.1267 19.4902 28.3144 19.3025L30.207 17.4101V17.41C30.3946 17.2223 30.5 16.9677 30.5 16.7023C30.5 16.437 30.3946 16.1824 30.207 15.9946L25.0056 10.793C24.818 10.6054 24.5634 10.5 24.2979 10.5C24.0325 10.5 23.7779 10.6054 23.5903 10.793L21.6976 12.6854L21.6975 12.6858ZM23.2546 13.3936L27.6066 17.7453L28.6496 16.7023L24.2979 12.3504L23.2548 13.3934L23.2546 13.3936ZM15.5653 23.1391L17.8608 25.4348L25.4347 17.861L23.1393 15.5655L15.5655 23.1393L15.5653 23.1391ZM16.7024 28.6498L12.3502 24.2981L13.3932 23.2551L17.7454 27.6068L16.7024 28.6498Z" fill="white"/>
    </svg>
    