<svg width="41" height="41" viewBox="0 0 41 41" fill="none" xmlns="http://www.w3.org/2000/svg">
    <rect width="41" height="41" rx="20.5" fill="black"/>
    <g clip-path="url(#clip0_2939_116083)">
    <path d="M19.3141 21.0001H13.1563C12.9836 21.0001 12.8438 20.8602 12.8438 20.6876C12.8438 20.5149 12.9836 20.3751 13.1563 20.3751H19.3141C19.7962 20.3743 20.1868 19.9837 20.1876 19.5017V16.9407C20.1883 16.6078 20.0563 16.2891 19.8212 16.0539C19.586 15.8188 19.2673 15.6868 18.9345 15.6875C17.4696 15.6868 16.2821 14.4993 16.2813 13.0344C16.2813 12.7742 16.0696 12.5625 15.8094 12.5625H13.1563C12.9836 12.5625 12.8438 12.4227 12.8438 12.25C12.8438 12.0773 12.9836 11.9375 13.1563 11.9375H15.8094C16.4149 11.9383 16.9055 12.4289 16.9063 13.0344C16.9071 14.1539 17.8149 15.0617 18.9345 15.0625C19.4329 15.0618 19.911 15.2594 20.2634 15.6118C20.6157 15.9641 20.8133 16.4422 20.8126 16.9407V19.5017C20.8118 20.329 20.1415 20.9993 19.3141 21.0001Z" fill="white" stroke="white"/>
    <path d="M12.3414 21.9375H11.7836C11.2477 21.9368 10.8133 21.5024 10.8125 20.9664V11.9711C10.8133 11.4352 11.2476 11.0008 11.7836 11H12.3414C12.8773 11.0008 13.3117 11.4351 13.3125 11.9711V20.9664C13.3117 21.5024 12.8774 21.9368 12.3414 21.9375ZM11.7836 11.6252C11.5922 11.6252 11.4375 11.7799 11.4375 11.9713V20.9666C11.4375 21.158 11.5922 21.3127 11.7836 21.3127H12.3414C12.5328 21.3127 12.6875 21.158 12.6875 20.9666V11.9713C12.6875 11.7799 12.5328 11.6252 12.3414 11.6252H11.7836Z" fill="white" stroke="white"/>
    <path d="M29.875 27.8429H11.125C10.9524 27.8429 10.8125 27.7031 10.8125 27.5304V25.1866C10.8125 25.0405 10.9133 24.9139 11.0563 24.8819C11.6992 24.735 12.3602 24.6803 13.0188 24.7186C13.3992 24.7428 13.7766 24.7991 14.1469 24.8881C14.4899 24.9741 14.8406 25.0217 15.1938 25.0303C15.5078 25.0467 15.8227 25.0045 16.1211 24.9053C16.4711 24.7952 16.8352 24.7319 17.2024 24.7186C17.725 24.685 18.2508 24.7381 18.757 24.8756C19.2188 25.0006 19.6977 25.053 20.1766 25.0303C20.5016 25.0288 20.825 24.9772 21.1344 24.8764C21.4836 24.7624 21.85 24.7084 22.2172 24.7178C22.7438 24.7116 23.268 24.7866 23.7711 24.9413C24.157 25.0788 24.5727 25.1116 24.975 25.0358C25.2453 24.9858 25.507 24.8959 25.7508 24.7686C26.0649 24.5858 26.4313 24.5139 26.7914 24.5647C27.1133 24.6124 27.4211 24.7311 27.6922 24.9131C27.8946 25.0506 28.1235 25.146 28.3641 25.1905C28.8375 25.2522 29.3172 25.153 29.7281 24.9108C29.825 24.8592 29.9422 24.8624 30.036 24.9186C30.1297 24.9749 30.1875 25.0772 30.1875 25.1866V27.5304C30.1875 27.7031 30.0477 27.8429 29.875 27.8429L29.875 27.8429ZM11.4367 27.2179H29.5617V25.6687C29.1476 25.8273 28.6984 25.8757 28.2601 25.8077C27.9421 25.7499 27.6398 25.6281 27.371 25.4499C27.1726 25.3124 26.946 25.2218 26.7078 25.1835C26.4679 25.1507 26.2249 25.2038 26.0203 25.3327C25.7265 25.4835 25.4117 25.5906 25.0867 25.6499C24.5921 25.7437 24.0812 25.707 23.6046 25.5445C23.1648 25.4085 22.7062 25.3406 22.246 25.3429H22.2195C21.9124 25.3335 21.607 25.3781 21.3156 25.4741C20.9538 25.5906 20.5773 25.6515 20.1976 25.6554C19.6632 25.6796 19.1281 25.6218 18.6117 25.4835C18.1632 25.3609 17.6984 25.3132 17.2343 25.3421C16.9163 25.3538 16.6007 25.4085 16.2976 25.5054C15.9367 25.6218 15.5585 25.6726 15.1804 25.6554C14.7867 25.6452 14.3945 25.5929 14.0117 25.4984C13.6734 25.4171 13.3281 25.3648 12.9804 25.3421C12.464 25.3124 11.9453 25.3452 11.4367 25.4413L11.4367 27.2179Z" fill="white" stroke="white"/>
    <path d="M23.5 25C23.3273 25 23.1875 24.8602 23.1875 24.6875V23.9781C23.1875 22.5 22.5 20.1229 20.4467 20.1229C20.2748 20.108 20.1475 19.9564 20.1623 19.7846C20.1772 19.6127 20.3287 19.4854 20.5006 19.5002C23 19.5002 23.8125 22 23.8125 23.9782V24.6875C23.8125 24.8602 23.6727 25 23.5 25Z" fill="white" stroke="white"/>
    </g>
    <defs>
    <clipPath id="clip0_2939_116083">
    <rect width="20" height="20" fill="black" transform="translate(10.5 10.5)"/>
    </clipPath>
    </defs>
    </svg>
    