<?xml version="1.0" encoding="UTF-8" standalone="no"?>
<!DOCTYPE svg PUBLIC "-//W3C//DTD SVG 1.1//EN" "http://www.w3.org/Graphics/SVG/1.1/DTD/svg11.dtd">
<svg width="100%" height="100%" viewBox="0 0 41 41" version="1.1" xmlns="http://www.w3.org/2000/svg" xmlns:xlink="http://www.w3.org/1999/xlink" xml:space="preserve" xmlns:serif="http://www.serif.com/" style="fill-rule:evenodd;clip-rule:evenodd;stroke-linecap:round;stroke-linejoin:round;">
    <defs>
      <linearGradient id="h2s-gradient">
        <animate 
          attributeName="gradientTransform"
          values="rotate(0);rotate(360)"
          dur="15s"
          repeatCount="indefinite"/>
        <stop offset="0%" stop-color="#FFFFFF">
          <animate 
            attributeName="stop-color"
            values="#FFFFFF;#00E400;#FFFF00;#FF7E00;#CC58DB;#FFFFFF"
            dur="15s"
            repeatCount="indefinite"/>
        </stop>
      </linearGradient>
    </defs>
    <path d="M41,20.5C41,9.186 31.814,0 20.5,0C9.186,0 0,9.186 0,20.5C0,31.814 9.186,41 20.5,41C31.814,41 41,31.814 41,20.5Z" style="fill:url(#h2s-gradient)">
      <animate 
        attributeName="fill"
        values="#FFFFFF;#00E400;#FFFF00;#FF7E00;#CC58DB;#FFFFFF"
        dur="15s"
        repeatCount="indefinite"/>
    </path>
    <path d="M18.492,14.325C18.686,14.13 18.924,13.986 19.187,13.906C19.45,13.826 19.728,13.811 19.997,13.865C20.267,13.918 20.519,14.037 20.731,14.211C20.943,14.385 21.109,14.609 21.214,14.863C21.319,15.117 21.36,15.392 21.332,15.666C21.305,15.939 21.211,16.201 21.058,16.429C20.904,16.657 20.697,16.844 20.455,16.972C20.212,17.101 19.942,17.168 19.667,17.166L12.167,17.166M20.992,26.675C21.186,26.869 21.424,27.013 21.687,27.094C21.95,27.174 22.228,27.188 22.497,27.135C22.767,27.081 23.019,26.962 23.231,26.788C23.443,26.614 23.609,26.39 23.714,26.137C23.819,25.883 23.86,25.607 23.832,25.334C23.805,25.061 23.711,24.798 23.558,24.57C23.404,24.342 23.197,24.156 22.955,24.027C22.712,23.898 22.442,23.832 22.167,23.833L12.167,23.833M25.275,16.941C25.518,16.7 25.816,16.521 26.144,16.422C26.471,16.323 26.818,16.306 27.154,16.373C27.49,16.44 27.804,16.589 28.068,16.806C28.333,17.023 28.54,17.302 28.671,17.619C28.802,17.935 28.853,18.279 28.82,18.619C28.787,18.96 28.67,19.287 28.48,19.572C28.29,19.857 28.033,20.091 27.731,20.252C27.43,20.414 27.093,20.499 26.75,20.5L12.167,20.5" style="fill:none;fill-rule:nonzero;stroke:black;stroke-width:2px;"/>
</svg>
