<svg width="41" height="41" viewBox="0 0 41 41" fill="none" xmlns="http://www.w3.org/2000/svg">
    <rect x="1.25" y="1.25" width="38.5" height="38.5" rx="19.25" stroke="black" stroke-width="2.5"/>
    <mask id="mask0_2939_116083" style="mask-type:luminance" maskUnits="userSpaceOnUse" x="6" y="9" width="29" height="23">
    <path d="M7.41565 9.46387H20.4996C20.4996 9.46387 18.8986 12.1789 19.6086 12.4449C20.7666 12.8779 20.5936 14.7249 19.6146 14.7939C19.3886 14.8099 19.1396 14.6859 19.1396 14.6859L20.4996 17.9939L23.4156 18.9409C23.4156 18.9409 24.8316 19.1269 25.9376 18.7119C27.0436 18.2959 27.2146 17.4719 28.2626 17.4539C29.3106 17.4349 32.8436 17.5259 33.4436 18.4729C34.0426 19.4199 34.1786 30.9439 34.1786 30.9439L6.63965 31.5369L7.41565 9.46387Z" fill="white"/>
    </mask>
    <g mask="url(#mask0_2939_116083)">
    <path d="M10.5 14.2031C11.1 14.7031 11.7 15.2031 13 15.2031C15.5 15.2031 15.5 13.2031 18 13.2031C19.3 13.2031 19.9 13.7031 20.5 14.2031C21.1 14.7031 21.7 15.2031 23 15.2031C25.5 15.2031 25.5 13.2031 28 13.2031C29.3 13.2031 29.9 13.7031 30.5 14.2031M10.5 26.2031C11.1 26.7031 11.7 27.2031 13 27.2031C15.5 27.2031 15.5 25.2031 18 25.2031C19.3 25.2031 19.9 25.7031 20.5 26.2031C21.1 26.7031 21.7 27.2031 23 27.2031C25.5 27.2031 25.5 25.2031 28 25.2031C29.3 25.2031 29.9 25.7031 30.5 26.2031M10.5 20.2031C11.1 20.7031 11.7 21.2031 13 21.2031C15.5 21.2031 15.5 19.2031 18 19.2031C19.3 19.2031 19.9 19.7031 20.5 20.2031C21.1 20.7031 21.7 21.2031 23 21.2031C25.5 21.2031 25.5 19.2031 28 19.2031C29.3 19.2031 29.9 19.7031 30.5 20.2031" stroke="black" stroke-width="2" stroke-linecap="round" stroke-linejoin="round"/>
    </g>
    <mask id="mask1_2939_116083" style="mask-type:luminance" maskUnits="userSpaceOnUse" x="3" y="3" width="35" height="35">
    <path d="M20.5003 37.6803C29.9886 37.6803 37.6803 29.9886 37.6803 20.5003C37.6803 11.0121 29.9886 3.32031 20.5003 3.32031C11.0121 3.32031 3.32031 11.0121 3.32031 20.5003C3.32031 29.9886 11.0121 37.6803 20.5003 37.6803Z" fill="white"/>
    </mask>
    <g mask="url(#mask1_2939_116083)">
    <path fill-rule="evenodd" clip-rule="evenodd" d="M45.1911 16.4828L45.1911 9.9567L26.5808 9.9567L26.5808 9.49834L26.5809 9.4984C26.5809 9.22971 26.4742 8.97207 26.2842 8.78205C26.0942 8.59208 25.8366 8.48543 25.5679 8.48543L22.8599 8.48543C22.5912 8.48543 22.3336 8.59215 22.1437 8.78211C21.9538 8.97202 21.847 9.2296 21.847 9.49829L21.8469 16.9412C21.847 17.2098 21.9537 17.4675 22.1437 17.6575C22.3337 17.8475 22.5913 17.9541 22.8599 17.9542L25.5681 17.9541C25.8366 17.9541 26.0942 17.8473 26.2841 17.6574C26.474 17.4675 26.5807 17.2099 26.5807 16.9414L26.5809 16.4829L45.1911 16.4828ZM26.5969 11.5772L26.5967 14.8623L45.1749 14.8623L45.175 11.5775L26.5969 11.5775V11.5772ZM23.4675 16.3338L23.4672 10.1062L24.9597 10.1062L24.96 16.3338L23.4675 16.3338Z" fill="black" stroke="black" stroke-width="0.0216072" stroke-miterlimit="2" stroke-linejoin="round"/>
    </g>
    </svg>
    