<?xml version="1.0" encoding="UTF-8" standalone="no"?>
<!DOCTYPE svg PUBLIC "-//W3C//DTD SVG 1.1//EN" "http://www.w3.org/Graphics/SVG/1.1/DTD/svg11.dtd">
<svg width="100%" height="100%" viewBox="0 0 41 41" version="1.1" xmlns="http://www.w3.org/2000/svg" xmlns:xlink="http://www.w3.org/1999/xlink" xml:space="preserve" xmlns:serif="http://www.serif.com/" style="fill-rule:evenodd;clip-rule:evenodd;stroke-linecap:round;stroke-linejoin:round;">
    <path d="M41,20.5C41,9.186 31.814,0 20.5,0C9.186,0 0,9.186 0,20.5C0,31.814 9.186,41 20.5,41C31.814,41 41,31.814 41,20.5Z" style="fill:rgb(81,187,214);"/>
    <path d="M20.5,16.5L20.5,20.5M20.5,24.5L20.51,24.5M30.5,20.5C30.5,26.023 26.023,30.5 20.5,30.5C14.977,30.5 10.5,26.023 10.5,20.5C10.5,14.977 14.977,10.5 20.5,10.5C26.023,10.5 30.5,14.977 30.5,20.5Z" style="fill:none;fill-rule:nonzero;stroke:white;stroke-width:2.5px;"/>
</svg>
