<?xml version="1.0" encoding="UTF-8"?>
<svg width="1200pt" height="1200pt" version="1.1" viewBox="0 0 1200 1200" xmlns="http://www.w3.org/2000/svg">
 <path d="m535.2 711.6-183.6 288c-19.199 30-10.801 70.801 20.398 90 10.801 7.1992 22.801 10.801 34.801 10.801 21.602 0 43.199-10.801 55.199-30l180-282-49.199-22.801c-23.996-12-44.398-31.203-57.598-54z"/>
 <path d="m1090.8 214.8c0 63.621-51.578 115.2-115.2 115.2-63.625 0-115.2-51.578-115.2-115.2 0-63.625 51.578-115.2 115.2-115.2 63.621 0 115.2 51.574 115.2 115.2"/>
 <path d="m1167.6 538.8c-8.3984-28.801-38.398-45.602-67.199-38.398l-80.402 22.797-39.602-88.801c-12-26.398-31.199-49.199-55.199-64.801l-93.602-61.199c-27.602-18-61.199-26.398-93.602-24l-138 10.801c-14.398 1.1992-27.602 8.3984-37.199 19.199l-93.602 110.4c-19.199 22.801-16.801 57.602 6 76.801 22.801 19.199 57.602 16.801 76.801-6l79.199-93.602 82.801-6-118.8 213.6c-8.3984 15.602-10.801 34.801-4.8008 51.602s18 31.199 34.801 39.602l183.6 86.398-102 139.2c-21.602 28.801-14.398 69.602 14.398 91.199 12 8.3984 25.199 13.199 38.398 13.199 20.398 0 39.602-9.6016 52.801-26.398l148.8-204c12-15.602 15.602-36 10.801-55.199s-18-34.801-36-43.199l-128.4-61.199 88.801-130.8 44.398 99.602c8.3984 20.398 28.801 32.398 50.398 32.398 4.8008 0 9.6016-1.1992 14.398-2.3984l126-34.801c27.602-7.1992 44.402-37.199 36.004-66z"/>
 <path d="m156 380.4h222c26.398 0 48-21.602 48-48 0-26.398-21.602-48-48-48h-222c-26.398 0-48 21.602-48 48 0 26.402 21.602 48 48 48z"/>
 <path d="m116.4 595.2h222c26.398 0 48-21.602 48-48 0-26.398-21.602-48-48-48h-222c-26.398 0-48 21.602-48 48 1.2031 26.402 21.602 48 48 48z"/>
 <path d="m298.8 714h-220.8c-26.398 0-48 21.602-48 48s21.602 48 48 48h222c26.398 0 48-21.602 48-48s-22.801-48-49.199-48z"/>
</svg>
